# xmcd
#
# Track frame offsets:
#	150
#	23382
#	48742
#	73535
#
# Disc length: 1243 seconds
#
# Revision: 5
# Processed by: cddbd v1.5.2PL0 Copyright (c) Steve Scherf et al.
# Submitted via: audiograbber 1.83.01
#
DISCID=2b04d904
DTITLE=Master P - Make Em' Say Uhh!
DYEAR=1998
DGENRE=Rap
TTITLE0=Master P, Fiend, Silkk The Shocker, Mia X, Mystikal - Make Em' Say Uhh!
TTITLE1=Master P, Fiend, Silkk The Shocker, Mia X, Mystikal - Make Em' Say Uhh!
TTITLE1=(Radio)
TTITLE2=Master P - Make Em' Say Uhh! (Instumental)
TTITLE3=Master P, C-Murder, Silkk The Shocker - Weed And Hennessey
EXTD=www.RapMusicGuide.com
EXTT0=
EXTT1=
EXTT2=
EXTT3=
PLAYORDER=
